<svg width="242" height="79" viewBox="0 0 242 79" fill="none" xmlns="http://www.w3.org/2000/svg">
<path d="M231.12 68.29C231.02 67.49 231.08 66.79 231.3 66.19C231.54 65.59 231.87 65.05 232.29 64.57C232.73 64.09 233.21 63.65 233.73 63.25C234.27 62.85 234.77 62.46 235.23 62.08C235.71 61.7 236.1 61.31 236.4 60.91C236.7 60.51 236.85 60.07 236.85 59.59C236.85 58.99 236.7 58.48 236.4 58.06C236.1 57.64 235.66 57.32 235.08 57.1C234.52 56.88 233.84 56.77 233.04 56.77C232.12 56.77 231.28 56.97 230.52 57.37C229.76 57.77 229.01 58.36 228.27 59.14L225.81 56.86C226.77 55.76 227.9 54.88 229.2 54.22C230.52 53.54 231.97 53.2 233.55 53.2C235.01 53.2 236.3 53.42 237.42 53.86C238.56 54.3 239.45 54.97 240.09 55.87C240.75 56.75 241.08 57.86 241.08 59.2C241.08 59.94 240.92 60.59 240.6 61.15C240.3 61.69 239.9 62.18 239.4 62.62C238.92 63.04 238.41 63.45 237.87 63.85C237.33 64.23 236.83 64.63 236.37 65.05C235.91 65.47 235.55 65.94 235.29 66.46C235.03 66.98 234.93 67.59 234.99 68.29H231.12ZM233.07 76.27C232.31 76.27 231.68 76.02 231.18 75.52C230.68 75.02 230.43 74.39 230.43 73.63C230.43 72.85 230.68 72.21 231.18 71.71C231.68 71.21 232.31 70.96 233.07 70.96C233.83 70.96 234.46 71.21 234.96 71.71C235.46 72.21 235.71 72.85 235.71 73.63C235.71 74.39 235.46 75.02 234.96 75.52C234.46 76.02 233.83 76.27 233.07 76.27Z" fill="#B65A0F"/>
<path d="M195.84 50.3501L199.53 51.4601C198.87 52.9801 198.07 54.4701 197.13 55.9301C196.21 57.3901 195.21 58.7501 194.13 60.0101C193.05 61.2501 191.97 62.3201 190.89 63.2201C190.67 62.9801 190.38 62.6901 190.02 62.3501C189.68 62.0101 189.32 61.6701 188.94 61.3301C188.56 60.9701 188.23 60.7001 187.95 60.5201C189.03 59.7201 190.07 58.7901 191.07 57.7301C192.07 56.6701 192.97 55.5101 193.77 54.2501C194.59 52.9701 195.28 51.6701 195.84 50.3501ZM195.75 54.4301H211.62V57.8201H194.04L195.75 54.4301ZM210.27 54.4301H213.93C213.93 54.4301 213.93 54.5301 213.93 54.7301C213.93 54.9101 213.93 55.1201 213.93 55.3601C213.93 55.5801 213.92 55.7701 213.9 55.9301C213.82 58.2901 213.74 60.3101 213.66 61.9901C213.6 63.6501 213.51 65.0301 213.39 66.1301C213.29 67.2301 213.17 68.1001 213.03 68.7401C212.89 69.3601 212.71 69.8101 212.49 70.0901C212.19 70.5501 211.86 70.8801 211.5 71.0801C211.14 71.2601 210.74 71.3901 210.3 71.4701C209.9 71.5301 209.39 71.5701 208.77 71.5901C208.17 71.6101 207.52 71.6101 206.82 71.5901C206.8 71.0701 206.7 70.4901 206.52 69.8501C206.36 69.2101 206.14 68.6601 205.86 68.2001C206.38 68.2401 206.85 68.2701 207.27 68.2901C207.71 68.3101 208.06 68.3101 208.32 68.2901C208.54 68.3101 208.72 68.2901 208.86 68.2301C209 68.1501 209.14 68.0201 209.28 67.8401C209.42 67.6601 209.54 67.3101 209.64 66.7901C209.74 66.2501 209.83 65.5001 209.91 64.5401C209.99 63.5601 210.06 62.3001 210.12 60.7601C210.18 59.2001 210.23 57.3201 210.27 55.1201V54.4301ZM192.87 59.9801H196.41V72.7301C196.41 73.2901 196.49 73.7201 196.65 74.0201C196.83 74.3001 197.18 74.4901 197.7 74.5901C198.22 74.6701 199 74.7101 200.04 74.7101C200.28 74.7101 200.64 74.7101 201.12 74.7101C201.6 74.7101 202.15 74.7101 202.77 74.7101C203.39 74.7101 204.04 74.7101 204.72 74.7101C205.4 74.7101 206.06 74.7101 206.7 74.7101C207.34 74.7101 207.91 74.7101 208.41 74.7101C208.93 74.7101 209.33 74.7101 209.61 74.7101C210.45 74.7101 211.08 74.6301 211.5 74.4701C211.94 74.2901 212.25 73.9601 212.43 73.4801C212.61 73.0001 212.76 72.2901 212.88 71.3501C213.32 71.6301 213.88 71.8901 214.56 72.1301C215.24 72.3701 215.83 72.5301 216.33 72.6101C216.15 74.0101 215.84 75.1101 215.4 75.9101C214.98 76.7101 214.34 77.2701 213.48 77.5901C212.62 77.9101 211.42 78.0701 209.88 78.0701C209.66 78.0701 209.29 78.0701 208.77 78.0701C208.25 78.0701 207.65 78.0701 206.97 78.0701C206.31 78.0701 205.62 78.0701 204.9 78.0701C204.18 78.0701 203.48 78.0701 202.8 78.0701C202.14 78.0701 201.56 78.0701 201.06 78.0701C200.58 78.0701 200.23 78.0701 200.01 78.0701C198.17 78.0701 196.73 77.9201 195.69 77.6201C194.65 77.3201 193.92 76.7801 193.5 76.0001C193.08 75.2401 192.87 74.1601 192.87 72.7601V59.9801ZM193.89 59.9801H205.65V69.6701H193.89V66.4901H202.11V63.1601H193.89V59.9801Z" fill="#B65A0F"/>
<path d="M170.25 51.82H184.59V54.55H170.25V51.82ZM175.56 61.42H179.28V63.67H175.56V61.42ZM175.56 65.98H179.28V68.23H175.56V65.98ZM172.62 70.54H182.79V73.09H172.62V70.54ZM174.75 58.54H176.73V71.62H174.75V58.54ZM178.14 58.54H180.12V71.65H178.14V58.54ZM175.92 53.02L179.49 53.17C179.29 54.11 179.06 55.04 178.8 55.96C178.56 56.88 178.33 57.67 178.11 58.33L175.44 58C175.52 57.5 175.59 56.96 175.65 56.38C175.73 55.8 175.79 55.22 175.83 54.64C175.87 54.04 175.9 53.5 175.92 53.02ZM170.79 56.68H184.26V73.99H181.53V59.2H173.43V74.02H170.79V56.68ZM157.38 52.81H169.86V55.39H157.38V52.81ZM159.66 65.98C160.32 68 161.14 69.62 162.12 70.84C163.1 72.06 164.23 72.99 165.51 73.63C166.81 74.25 168.23 74.67 169.77 74.89C171.33 75.11 173.02 75.22 174.84 75.22C175.18 75.22 175.68 75.22 176.34 75.22C177.02 75.22 177.78 75.22 178.62 75.22C179.48 75.22 180.34 75.22 181.2 75.22C182.08 75.2 182.88 75.19 183.6 75.19C184.34 75.19 184.91 75.18 185.31 75.16C185.13 75.4 184.95 75.71 184.77 76.09C184.61 76.47 184.46 76.86 184.32 77.26C184.2 77.66 184.1 78.01 184.02 78.31H182.34H174.75C172.61 78.31 170.65 78.16 168.87 77.86C167.09 77.58 165.47 77.04 164.01 76.24C162.57 75.44 161.3 74.29 160.2 72.79C159.1 71.27 158.18 69.29 157.44 66.85L159.66 65.98ZM161.94 64.03L164.64 64.75C163.98 66.43 163.1 68.03 162 69.55C160.92 71.05 159.72 72.3 158.4 73.3C158.32 73.08 158.18 72.81 157.98 72.49C157.8 72.15 157.61 71.82 157.41 71.5C157.21 71.18 157.02 70.92 156.84 70.72C157.92 69.94 158.91 68.97 159.81 67.81C160.73 66.63 161.44 65.37 161.94 64.03ZM159.03 55.72L161.1 56.32C160.78 57.42 160.34 58.52 159.78 59.62C159.24 60.72 158.66 61.66 158.04 62.44C157.92 62.2 157.72 61.87 157.44 61.45C157.18 61.01 156.94 60.68 156.72 60.46C157.22 59.84 157.67 59.11 158.07 58.27C158.47 57.43 158.79 56.58 159.03 55.72ZM162.18 66.13H167.25V68.68H160.89L162.18 66.13ZM166.38 66.13H167.01L167.52 66.04L169.35 66.91C168.75 68.95 167.91 70.75 166.83 72.31C165.77 73.85 164.53 75.15 163.11 76.21C161.69 77.29 160.15 78.15 158.49 78.79C158.39 78.55 158.23 78.27 158.01 77.95C157.81 77.63 157.59 77.31 157.35 76.99C157.13 76.69 156.92 76.46 156.72 76.3C158.26 75.76 159.68 75.05 160.98 74.17C162.28 73.29 163.39 72.22 164.31 70.96C165.25 69.7 165.94 68.26 166.38 66.64V66.13ZM162.33 50.53H165.33V61.96H162.33V50.53ZM158.82 58.84L160.14 57.43C160.54 57.77 160.94 58.16 161.34 58.6C161.74 59.02 162.05 59.38 162.27 59.68L160.89 61.27C160.67 60.95 160.36 60.56 159.96 60.1C159.56 59.64 159.18 59.22 158.82 58.84ZM167.07 55.66L169.08 56.17C168.86 57.01 168.56 57.87 168.18 58.75C167.8 59.63 167.41 60.38 167.01 61C166.83 60.84 166.56 60.65 166.2 60.43C165.84 60.19 165.54 60.01 165.3 59.89C165.68 59.29 166.02 58.62 166.32 57.88C166.62 57.14 166.87 56.4 167.07 55.66ZM166.98 58.93L168.36 57.52C168.76 57.86 169.17 58.24 169.59 58.66C170.01 59.08 170.33 59.43 170.55 59.71L169.08 61.33C168.86 60.99 168.55 60.6 168.15 60.16C167.75 59.7 167.36 59.29 166.98 58.93ZM162.66 60.25L164.94 61.18C164.46 61.78 163.86 62.39 163.14 63.01C162.42 63.61 161.66 64.17 160.86 64.69C160.06 65.19 159.27 65.6 158.49 65.92C158.27 65.58 157.97 65.19 157.59 64.75C157.21 64.31 156.87 63.95 156.57 63.67C157.31 63.45 158.06 63.16 158.82 62.8C159.6 62.44 160.33 62.04 161.01 61.6C161.69 61.16 162.24 60.71 162.66 60.25ZM165.15 60.22C165.41 60.34 165.78 60.53 166.26 60.79C166.74 61.05 167.25 61.34 167.79 61.66C168.33 61.96 168.83 62.24 169.29 62.5C169.75 62.76 170.09 62.95 170.31 63.07L168.75 65.5C168.45 65.24 168.07 64.94 167.61 64.6C167.15 64.26 166.67 63.91 166.17 63.55C165.67 63.19 165.19 62.86 164.73 62.56C164.27 62.24 163.87 61.98 163.53 61.78L165.15 60.22Z" fill="#B65A0F"/>
<path d="M133.89 66.3699L136.8 65.4099C137.18 66.3499 137.57 67.3699 137.97 68.4699C138.37 69.5699 138.72 70.6299 139.02 71.6499C139.34 72.6699 139.57 73.5799 139.71 74.3799L136.56 75.5499C136.44 74.7699 136.24 73.8599 135.96 72.8199C135.68 71.7599 135.36 70.6699 135 69.5499C134.64 68.4099 134.27 67.3499 133.89 66.3699ZM129.06 51.3399L132.27 52.0299C131.97 53.5699 131.59 55.0999 131.13 56.6199C130.69 58.1199 130.18 59.5199 129.6 60.8199C129.02 62.1199 128.39 63.2699 127.71 64.2699C127.55 64.0499 127.31 63.7899 126.99 63.4899C126.69 63.1899 126.37 62.8899 126.03 62.5899C125.71 62.2699 125.43 62.0199 125.19 61.8399C125.81 60.9999 126.36 60.0199 126.84 58.8999C127.34 57.7799 127.77 56.5699 128.13 55.2699C128.51 53.9699 128.82 52.6599 129.06 51.3399ZM127.5 76.3899C127.44 76.1499 127.34 75.8299 127.2 75.4299C127.08 75.0299 126.95 74.6099 126.81 74.1699C126.67 73.7299 126.53 73.3599 126.39 73.0599C126.71 72.9599 126.99 72.7199 127.23 72.3399C127.47 71.9599 127.73 71.4299 128.01 70.7499C128.15 70.4299 128.34 69.9199 128.58 69.2199C128.84 68.4999 129.12 67.6499 129.42 66.6699C129.72 65.6899 130 64.6399 130.26 63.5199C130.54 62.3999 130.78 61.2799 130.98 60.1599L134.46 61.0299C134.1 62.6099 133.67 64.2099 133.17 65.8299C132.67 67.4299 132.14 68.9599 131.58 70.4199C131.04 71.8799 130.49 73.1999 129.93 74.3799V74.4399C129.93 74.4399 129.81 74.5099 129.57 74.6499C129.33 74.7699 129.04 74.9399 128.7 75.1599C128.38 75.3599 128.1 75.5699 127.86 75.7899C127.62 76.0099 127.5 76.2099 127.5 76.3899ZM127.47 76.3899L127.26 73.6299L128.7 72.5799L137.91 70.8999C137.95 71.3399 138.03 71.8399 138.15 72.3999C138.27 72.9399 138.38 73.3799 138.48 73.7199C136.28 74.1599 134.5 74.5299 133.14 74.8299C131.78 75.1099 130.73 75.3499 129.99 75.5499C129.25 75.7299 128.7 75.8799 128.34 75.9999C127.98 76.1399 127.69 76.2699 127.47 76.3899ZM133.29 52.3299L136.2 51.1899C136.74 52.2899 137.28 53.4699 137.82 54.7299C138.36 55.9699 138.83 57.1899 139.23 58.3899C139.65 59.5699 139.95 60.6299 140.13 61.5699L136.92 62.9499C136.76 62.0299 136.48 60.9599 136.08 59.7399C135.7 58.5199 135.27 57.2699 134.79 55.9899C134.31 54.6899 133.81 53.4699 133.29 52.3299ZM138.84 51.9399H153.54V55.1499H138.84V51.9399ZM143.31 63.9099V65.5299H149.1V63.9099H143.31ZM143.31 68.0799V69.6999H149.1V68.0799H143.31ZM143.31 59.7999V61.3899H149.1V59.7999H143.31ZM140.1 57.0999H152.43V72.3999H140.1V57.0999ZM144.81 54.0699L148.53 54.5799C148.07 55.4399 147.58 56.2899 147.06 57.1299C146.54 57.9499 146.07 58.6599 145.65 59.2599L142.83 58.6899C143.09 58.2499 143.34 57.7599 143.58 57.2199C143.82 56.6599 144.05 56.1099 144.27 55.5699C144.49 55.0299 144.67 54.5299 144.81 54.0699ZM143.04 72.3399L145.86 74.3199C145.1 75.1399 144.15 75.9299 143.01 76.6899C141.87 77.4699 140.73 78.0899 139.59 78.5499C139.39 78.1899 139.12 77.7599 138.78 77.2599C138.46 76.7599 138.14 76.3299 137.82 75.9699C138.46 75.6899 139.11 75.3499 139.77 74.9499C140.43 74.5499 141.05 74.1199 141.63 73.6599C142.21 73.1799 142.68 72.7399 143.04 72.3399ZM146.88 74.4699L148.65 72.1299C149.25 72.4699 149.89 72.8699 150.57 73.3299C151.25 73.7699 151.91 74.2199 152.55 74.6799C153.19 75.1199 153.71 75.5199 154.11 75.8799L152.25 78.5199C151.87 78.1399 151.37 77.6999 150.75 77.1999C150.15 76.7199 149.51 76.2399 148.83 75.7599C148.15 75.2799 147.5 74.8499 146.88 74.4699Z" fill="#B65A0F"/>
<path d="M114.96 53.53H118.74V74.14C118.74 75.22 118.6 76.05 118.32 76.63C118.04 77.23 117.53 77.68 116.79 77.98C116.07 78.28 115.15 78.46 114.03 78.52C112.91 78.6 111.58 78.64 110.04 78.64C109.96 78.28 109.84 77.86 109.68 77.38C109.52 76.92 109.33 76.46 109.11 76C108.91 75.54 108.71 75.15 108.51 74.83C109.25 74.85 109.99 74.87 110.73 74.89C111.49 74.91 112.17 74.92 112.77 74.92C113.37 74.92 113.79 74.92 114.03 74.92C114.37 74.92 114.61 74.86 114.75 74.74C114.89 74.62 114.96 74.4 114.96 74.08V53.53ZM97.83 59.53H101.31V73.51H97.83V59.53ZM99.3 59.53H110.61V71.2H99.3V67.75H107.07V62.95H99.3V59.53ZM95.04 52.51H122.22V56.17H95.04V52.51Z" fill="#B65A0F"/>
<path d="M66.69 55.39H75.9V75.58H66.69V72.43H72.66V58.51H66.69V55.39ZM64.59 55.39H67.86V77.8H64.59V55.39ZM66.57 63.4H74.22V66.52H66.57V63.4ZM68.88 50.5L72.78 51.07C72.46 52.09 72.11 53.1 71.73 54.1C71.37 55.1 71.04 55.95 70.74 56.65L67.86 55.99C68 55.47 68.13 54.89 68.25 54.25C68.39 53.61 68.52 52.96 68.64 52.3C68.76 51.64 68.84 51.04 68.88 50.5ZM79.86 55.15H88.65V58.45H79.86V55.15ZM87.39 55.15H90.72C90.72 55.15 90.72 55.26 90.72 55.48C90.72 55.68 90.72 55.91 90.72 56.17C90.72 56.43 90.71 56.63 90.69 56.77C90.61 60.15 90.51 63.02 90.39 65.38C90.29 67.72 90.16 69.66 90 71.2C89.86 72.72 89.69 73.91 89.49 74.77C89.29 75.63 89.03 76.26 88.71 76.66C88.31 77.24 87.88 77.64 87.42 77.86C86.96 78.08 86.43 78.24 85.83 78.34C85.25 78.42 84.53 78.45 83.67 78.43C82.83 78.43 81.97 78.42 81.09 78.4C81.07 77.9 80.95 77.31 80.73 76.63C80.51 75.97 80.24 75.39 79.92 74.89C80.88 74.97 81.77 75.02 82.59 75.04C83.43 75.06 84.04 75.07 84.42 75.07C84.72 75.07 84.96 75.04 85.14 74.98C85.34 74.9 85.53 74.76 85.71 74.56C85.97 74.3 86.18 73.77 86.34 72.97C86.52 72.15 86.67 71 86.79 69.52C86.91 68.04 87.02 66.17 87.12 63.91C87.22 61.65 87.31 58.96 87.39 55.84V55.15ZM79.95 50.53L83.43 51.34C83.05 52.8 82.58 54.26 82.02 55.72C81.48 57.18 80.88 58.56 80.22 59.86C79.58 61.14 78.92 62.26 78.24 63.22C78.04 63.02 77.75 62.79 77.37 62.53C77.01 62.25 76.64 61.98 76.26 61.72C75.9 61.46 75.58 61.26 75.3 61.12C75.96 60.26 76.58 59.27 77.16 58.15C77.76 57.01 78.29 55.79 78.75 54.49C79.23 53.17 79.63 51.85 79.95 50.53ZM78.48 63.82L81.3 62.23C81.8 62.91 82.33 63.66 82.89 64.48C83.45 65.3 83.98 66.1 84.48 66.88C84.98 67.66 85.39 68.35 85.71 68.95L82.65 70.81C82.37 70.19 81.99 69.48 81.51 68.68C81.05 67.88 80.55 67.06 80.01 66.22C79.49 65.36 78.98 64.56 78.48 63.82Z" fill="#B65A0F"/>
<path d="M42.87 66.58H58.71V69.82H42.87V66.58ZM41.13 74.59H60.24V77.86H41.13V74.59ZM41.58 53.77H60.03V59.41H56.76V56.74H44.7V59.5H41.58V53.77ZM48.87 68.14H52.41V76.15H48.87V68.14ZM31.92 66.73C33.12 66.43 34.56 66.04 36.24 65.56C37.94 65.06 39.65 64.55 41.37 64.03L41.91 67.21C40.33 67.75 38.72 68.28 37.08 68.8C35.46 69.32 33.97 69.8 32.61 70.24L31.92 66.73ZM32.34 56.23H41.22V59.56H32.34V56.23ZM35.46 50.53H38.76V74.89C38.76 75.71 38.67 76.36 38.49 76.84C38.33 77.34 38.02 77.73 37.56 78.01C37.12 78.29 36.56 78.48 35.88 78.58C35.22 78.68 34.39 78.72 33.39 78.7C33.35 78.26 33.24 77.71 33.06 77.05C32.88 76.41 32.68 75.85 32.46 75.37C33.02 75.39 33.53 75.41 33.99 75.43C34.47 75.43 34.8 75.42 34.98 75.4C35.16 75.4 35.28 75.37 35.34 75.31C35.42 75.23 35.46 75.09 35.46 74.89V50.53ZM47.79 51.22L51.15 50.23C51.51 50.91 51.87 51.65 52.23 52.45C52.59 53.25 52.87 53.94 53.07 54.52L49.62 55.69C49.44 55.09 49.17 54.37 48.81 53.53C48.47 52.69 48.13 51.92 47.79 51.22ZM46.86 56.26H50.13C50.07 57.52 49.95 58.64 49.77 59.62C49.59 60.58 49.26 61.44 48.78 62.2C48.32 62.94 47.65 63.58 46.77 64.12C45.91 64.66 44.78 65.1 43.38 65.44C43.26 65.06 43.03 64.61 42.69 64.09C42.35 63.57 42.02 63.17 41.7 62.89C42.84 62.63 43.74 62.32 44.4 61.96C45.08 61.6 45.59 61.16 45.93 60.64C46.29 60.1 46.53 59.47 46.65 58.75C46.77 58.03 46.84 57.2 46.86 56.26ZM51.6 55.96H54.81V60.85C54.81 61.23 54.85 61.5 54.93 61.66C55.01 61.82 55.18 61.9 55.44 61.9C55.54 61.9 55.7 61.9 55.92 61.9C56.14 61.9 56.38 61.9 56.64 61.9C56.9 61.9 57.14 61.9 57.36 61.9C57.58 61.9 57.75 61.9 57.87 61.9C58.15 61.9 58.48 61.89 58.86 61.87C59.24 61.83 59.54 61.78 59.76 61.72C59.8 62.14 59.84 62.62 59.88 63.16C59.92 63.7 59.98 64.16 60.06 64.54C59.82 64.64 59.5 64.71 59.1 64.75C58.72 64.77 58.33 64.78 57.93 64.78C57.81 64.78 57.63 64.78 57.39 64.78C57.15 64.78 56.89 64.78 56.61 64.78C56.33 64.78 56.07 64.78 55.83 64.78C55.59 64.78 55.41 64.78 55.29 64.78C54.29 64.78 53.52 64.65 52.98 64.39C52.46 64.11 52.1 63.68 51.9 63.1C51.7 62.52 51.6 61.76 51.6 60.82V55.96Z" fill="#B65A0F"/>
<path d="M1.44 63.67H28.56V67.33H1.44V63.67ZM6.12 50.86L9.93 51.67C9.55 53.11 9.08 54.52 8.52 55.9C7.98 57.26 7.39 58.54 6.75 59.74C6.11 60.92 5.43 61.96 4.71 62.86C4.45 62.66 4.1 62.44 3.66 62.2C3.24 61.94 2.81 61.7 2.37 61.48C1.93 61.24 1.55 61.06 1.23 60.94C1.97 60.16 2.65 59.23 3.27 58.15C3.89 57.07 4.44 55.91 4.92 54.67C5.42 53.41 5.82 52.14 6.12 50.86ZM6.99 55.27H25.98V58.93H5.19L6.99 55.27ZM16.86 64.42C17.76 67.26 19.23 69.6 21.27 71.44C23.31 73.28 26.05 74.56 29.49 75.28C29.21 75.54 28.91 75.87 28.59 76.27C28.29 76.67 28 77.08 27.72 77.5C27.46 77.94 27.24 78.34 27.06 78.7C24.58 78.06 22.47 77.13 20.73 75.91C18.99 74.69 17.53 73.19 16.35 71.41C15.19 69.63 14.22 67.56 13.44 65.2L16.86 64.42ZM12.96 50.5H16.74V60.07C16.74 61.47 16.65 62.89 16.47 64.33C16.31 65.77 15.97 67.18 15.45 68.56C14.93 69.94 14.17 71.26 13.17 72.52C12.17 73.76 10.85 74.91 9.21 75.97C7.59 77.01 5.58 77.9 3.18 78.64C3.04 78.34 2.83 77.99 2.55 77.59C2.29 77.19 2.01 76.79 1.71 76.39C1.41 76.01 1.13 75.7 0.869995 75.46C3.03 74.84 4.84 74.09 6.3 73.21C7.76 72.33 8.93 71.37 9.81 70.33C10.71 69.29 11.38 68.2 11.82 67.06C12.28 65.9 12.58 64.73 12.72 63.55C12.88 62.37 12.96 61.2 12.96 60.04V50.5Z" fill="#B65A0F"/>
<path d="M143.4 11.08H146.85V34.81H143.4V11.08ZM136.62 13.75H153.36V16.54H136.62V13.75ZM135.72 33.37H153.99V36.19H135.72V33.37ZM137.43 29.23H152.85V31.99H137.43V29.23ZM151.23 8.77002L153.3 11.41C152.22 11.63 151.04 11.82 149.76 11.98C148.48 12.12 147.16 12.24 145.8 12.34C144.44 12.44 143.07 12.52 141.69 12.58C140.31 12.62 138.99 12.65 137.73 12.67C137.69 12.29 137.59 11.84 137.43 11.32C137.27 10.8 137.11 10.36 136.95 10C138.19 9.96002 139.46 9.91002 140.76 9.85002C142.08 9.77002 143.37 9.68002 144.63 9.58002C145.89 9.48002 147.08 9.36002 148.2 9.22002C149.34 9.08002 150.35 8.93002 151.23 8.77002ZM140.73 23.89V25.39H149.61V23.89H140.73ZM140.73 20.26V21.76H149.61V20.26H140.73ZM137.61 17.77H152.88V27.88H137.61V17.77ZM130.35 11.32H133.83V36.67H130.35V11.32ZM126.03 16.96H137.04V20.29H126.03V16.96ZM130.53 18.31L132.63 19.21C132.35 20.29 132.01 21.41 131.61 22.57C131.21 23.73 130.77 24.88 130.29 26.02C129.81 27.14 129.3 28.2 128.76 29.2C128.22 30.2 127.66 31.07 127.08 31.81C126.9 31.29 126.64 30.71 126.3 30.07C125.98 29.41 125.68 28.85 125.4 28.39C125.92 27.79 126.43 27.09 126.93 26.29C127.45 25.47 127.94 24.6 128.4 23.68C128.86 22.76 129.27 21.84 129.63 20.92C129.99 20 130.29 19.13 130.53 18.31ZM135 8.83002L137.43 11.59C136.41 11.97 135.29 12.32 134.07 12.64C132.85 12.96 131.6 13.24 130.32 13.48C129.06 13.7 127.85 13.89 126.69 14.05C126.61 13.65 126.47 13.19 126.27 12.67C126.07 12.13 125.87 11.67 125.67 11.29C126.77 11.11 127.89 10.9 129.03 10.66C130.19 10.4 131.28 10.11 132.3 9.79002C133.34 9.47002 134.24 9.15002 135 8.83002ZM133.77 21.13C133.95 21.27 134.22 21.53 134.58 21.91C134.96 22.27 135.36 22.67 135.78 23.11C136.22 23.55 136.61 23.96 136.95 24.34C137.29 24.7 137.54 24.96 137.7 25.12L135.63 27.97C135.45 27.59 135.21 27.16 134.91 26.68C134.63 26.2 134.32 25.7 133.98 25.18C133.66 24.66 133.34 24.17 133.02 23.71C132.7 23.23 132.42 22.84 132.18 22.54L133.77 21.13Z" fill="#B65A0F"/>
<path d="M94.74 20.3501H122.52V24.2801H94.74V20.3501Z" fill="#B65A0F"/>
<path d="M72.1499 9.84998H79.8899V12.88H72.1499V9.84998ZM72.1799 16.84H80.0099V19.84H72.1799V16.84ZM72.1499 23.95H80.2799V26.98H72.1499V23.95ZM78.5999 9.84998H81.4799C81.4799 9.84998 81.4799 9.95998 81.4799 10.18C81.4799 10.38 81.4799 10.6 81.4799 10.84C81.4799 11.08 81.47 11.27 81.45 11.41C81.45 14.73 81.4399 17.63 81.4199 20.11C81.3999 22.57 81.3699 24.68 81.3299 26.44C81.3099 28.2 81.2699 29.66 81.2099 30.82C81.1499 31.98 81.0699 32.89 80.9699 33.55C80.8699 34.21 80.7399 34.68 80.5799 34.96C80.3199 35.46 80.04 35.81 79.74 36.01C79.46 36.21 79.1199 36.35 78.7199 36.43C78.3399 36.53 77.9199 36.59 77.4599 36.61C76.9999 36.63 76.51 36.63 75.99 36.61C75.97 36.15 75.8899 35.62 75.7499 35.02C75.6099 34.42 75.4199 33.9 75.1799 33.46C75.5799 33.48 75.9399 33.5 76.2599 33.52C76.5999 33.52 76.8799 33.52 77.0999 33.52C77.2999 33.54 77.4599 33.5 77.5799 33.4C77.6999 33.3 77.8199 33.13 77.9399 32.89C78.0599 32.63 78.1599 32.08 78.2399 31.24C78.3199 30.38 78.38 29.11 78.42 27.43C78.46 25.75 78.4899 23.54 78.5099 20.8C78.5499 18.06 78.5799 14.69 78.5999 10.69V9.84998ZM74.0699 11.44H76.95V19.63C76.95 20.87 76.89 22.24 76.77 23.74C76.67 25.24 76.4499 26.77 76.1099 28.33C75.7699 29.89 75.2799 31.4 74.6399 32.86C73.9999 34.3 73.1599 35.6 72.1199 36.76C71.9999 36.56 71.8099 36.31 71.5499 36.01C71.29 35.73 71.02 35.45 70.74 35.17C70.46 34.91 70.2299 34.72 70.0499 34.6C70.9699 33.52 71.7 32.36 72.24 31.12C72.78 29.86 73.1799 28.56 73.4399 27.22C73.6999 25.88 73.87 24.56 73.95 23.26C74.03 21.96 74.0699 20.74 74.0699 19.6V11.44ZM82.71 9.84998H88.6799V12.76H85.6499V36.7H82.71V9.84998ZM88.1399 9.84998H88.6799L89.1 9.72998L91.3199 10.99C91.0999 11.99 90.85 13.07 90.57 14.23C90.31 15.39 90.0399 16.53 89.7599 17.65C89.4999 18.75 89.2499 19.73 89.0099 20.59C89.7699 21.91 90.26 23.16 90.4799 24.34C90.6999 25.5 90.8199 26.59 90.84 27.61C90.84 28.65 90.7399 29.52 90.5399 30.22C90.3599 30.9 90.0499 31.41 89.6099 31.75C89.4299 31.93 89.2 32.07 88.92 32.17C88.66 32.27 88.3799 32.35 88.0799 32.41C87.6399 32.47 87.12 32.49 86.52 32.47C86.52 32.05 86.4699 31.56 86.3699 31C86.2699 30.42 86.1099 29.91 85.8899 29.47C86.0699 29.49 86.2399 29.5 86.3999 29.5C86.5599 29.5 86.71 29.5 86.85 29.5C87.11 29.48 87.3299 29.38 87.5099 29.2C87.6499 29.04 87.75 28.78 87.81 28.42C87.87 28.04 87.8999 27.6 87.8999 27.1C87.8999 26.28 87.8 25.34 87.6 24.28C87.42 23.2 86.98 22.07 86.28 20.89C86.46 20.15 86.6399 19.32 86.8199 18.4C86.9999 17.46 87.1699 16.52 87.3299 15.58C87.5099 14.62 87.67 13.74 87.81 12.94C87.95 12.12 88.0599 11.46 88.1399 10.96V9.84998ZM65.8199 11.17H71.3699V28.84H65.8199V25.54H68.6399V14.44H65.8199V11.17ZM64.3199 11.17H66.99V31.66H64.3199V11.17Z" fill="#B65A0F"/>
<path d="M32.94 21.34H59.52V24.49H32.94V21.34ZM46.38 26.74H57.6V29.86H46.38V26.74ZM44.7 22.96H48.36V34.06H44.7V22.96ZM40.08 27.73C40.64 29.19 41.42 30.29 42.42 31.03C43.42 31.75 44.62 32.23 46.02 32.47C47.44 32.71 49.02 32.84 50.76 32.86C51.1 32.86 51.57 32.86 52.17 32.86C52.79 32.86 53.48 32.86 54.24 32.86C55 32.86 55.76 32.86 56.52 32.86C57.3 32.84 58.03 32.83 58.71 32.83C59.39 32.81 59.95 32.79 60.39 32.77C60.21 33.05 60.04 33.39 59.88 33.79C59.72 34.19 59.57 34.6 59.43 35.02C59.31 35.46 59.22 35.86 59.16 36.22H57.36H50.58C48.84 36.22 47.27 36.12 45.87 35.92C44.49 35.72 43.25 35.35 42.15 34.81C41.05 34.29 40.08 33.54 39.24 32.56C38.42 31.56 37.7 30.28 37.08 28.72L40.08 27.73ZM37.47 25.12L41.04 25.63C40.56 28.11 39.77 30.29 38.67 32.17C37.59 34.03 36.23 35.55 34.59 36.73C34.41 36.51 34.15 36.24 33.81 35.92C33.49 35.6 33.15 35.28 32.79 34.96C32.45 34.64 32.14 34.39 31.86 34.21C33.4 33.27 34.63 32.02 35.55 30.46C36.47 28.9 37.11 27.12 37.47 25.12ZM39.21 15.94V17.44H52.98V15.94H39.21ZM39.21 12.1V13.57H52.98V12.1H39.21ZM35.73 9.52002H56.64V19.99H35.73V9.52002Z" fill="#B65A0F"/>
<path d="M13.53 8.62012L17.07 9.43012C16.65 10.9901 16.14 12.5401 15.54 14.0801C14.94 15.6001 14.28 17.0301 13.56 18.3701C12.86 19.6901 12.11 20.8501 11.31 21.8501C11.09 21.6301 10.8 21.3701 10.44 21.0701C10.1 20.7701 9.74002 20.4801 9.36002 20.2001C9.00002 19.9001 8.68002 19.6601 8.40002 19.4801C9.18002 18.6201 9.89002 17.6101 10.53 16.4501C11.17 15.2901 11.74 14.0401 12.24 12.7001C12.76 11.3601 13.19 10.0001 13.53 8.62012ZM12.69 21.9401L16.2 22.6601C15.92 23.9401 15.56 25.2001 15.12 26.4401C14.7 27.6601 14.23 28.8201 13.71 29.9201C13.19 31.0001 12.65 31.9501 12.09 32.7701C11.87 32.5701 11.57 32.3501 11.19 32.1101C10.81 31.8501 10.42 31.6101 10.02 31.3901C9.64002 31.1501 9.31002 30.9601 9.03002 30.8201C9.89002 29.7601 10.63 28.4301 11.25 26.8301C11.87 25.2301 12.35 23.6001 12.69 21.9401ZM14.19 13.9001H26.52V17.2301H12.87L14.19 13.9001ZM17.64 15.3701H21.21V32.6801C21.21 33.5201 21.12 34.2101 20.94 34.7501C20.76 35.2901 20.39 35.7101 19.83 36.0101C19.31 36.2901 18.68 36.4801 17.94 36.5801C17.22 36.6801 16.37 36.7301 15.39 36.7301C15.33 36.1901 15.17 35.5701 14.91 34.8701C14.67 34.1701 14.42 33.5801 14.16 33.1001C14.8 33.1201 15.4 33.1301 15.96 33.1301C16.54 33.1301 16.93 33.1301 17.13 33.1301C17.31 33.1301 17.44 33.1001 17.52 33.0401C17.6 32.9601 17.64 32.8201 17.64 32.6201V15.3701ZM22.29 22.7201L25.5 21.6401C26.04 22.6801 26.53 23.7901 26.97 24.9701C27.41 26.1301 27.79 27.2801 28.11 28.4201C28.43 29.5401 28.66 30.5501 28.8 31.4501L25.35 32.6501C25.23 31.7701 25.02 30.7501 24.72 29.5901C24.44 28.4301 24.09 27.2601 23.67 26.0801C23.25 24.8801 22.79 23.7601 22.29 22.7201ZM25.53 13.9001H26.01L26.58 13.7801L29.13 14.2601C28.95 15.4801 28.74 16.7401 28.5 18.0401C28.26 19.3201 28.03 20.4101 27.81 21.3101L24.75 20.7401C24.83 20.2001 24.92 19.5701 25.02 18.8501C25.12 18.1301 25.22 17.3801 25.32 16.6001C25.42 15.8001 25.49 15.0501 25.53 14.3501V13.9001ZM7.11002 8.62012L10.5 9.70012C9.86002 11.3801 9.10002 13.0801 8.22002 14.8001C7.34002 16.5001 6.39002 18.1201 5.37002 19.6601C4.35002 21.1801 3.29002 22.5101 2.19002 23.6501C2.09002 23.3501 1.92002 22.9701 1.68002 22.5101C1.46002 22.0301 1.22002 21.5501 0.96002 21.0701C0.70002 20.5901 0.47002 20.2001 0.27002 19.9001C1.17002 18.9801 2.04002 17.9201 2.88002 16.7201C3.74002 15.5201 4.53002 14.2301 5.25002 12.8501C5.99002 11.4701 6.61002 10.0601 7.11002 8.62012ZM4.23002 16.9301L7.65002 13.5101V13.5401V36.6401H4.23002V16.9301Z" fill="#B65A0F"/>
<ellipse cx="14.2785" cy="8.45316" rx="14.2785" ry="8.45316" transform="matrix(-0.77313 -0.634248 -0.634248 0.77313 236.866 32.554)" fill="#F3BD13"/>
<ellipse cx="182.401" cy="30.0332" rx="14.2785" ry="8.45316" transform="rotate(-39.3642 182.401 30.0332)" fill="#F3BD13"/>
<g filter="url(#filter0_d_91_21)">
<path d="M208.944 15.161C210.656 12.0065 214.477 10.6588 217.789 12.0413L222.364 13.9513C225.676 15.3338 227.405 18.9982 226.366 22.4335L222.501 35.2097C221.301 39.1772 216.934 41.2373 213.109 39.6405L206.032 36.6863C202.207 35.0896 200.601 30.5361 202.578 26.893L208.944 15.161Z" fill="#F3BD13"/>
</g>
<g filter="url(#filter1_d_91_21)">
<path d="M193.922 15.161C192.21 12.0065 188.389 10.6588 185.077 12.0413L180.502 13.9513C177.19 15.3338 175.461 18.9982 176.501 22.4335L180.365 35.2097C181.565 39.1772 185.932 41.2373 189.757 39.6405L196.834 36.6863C200.659 35.0896 202.265 30.5361 200.288 26.893L193.922 15.161Z" fill="#F3BD13"/>
</g>
<g filter="url(#filter2_d_91_21)">
<path d="M190.069 12.6747C189.668 8.56211 192.901 5 197.033 5H205.865C209.997 5 213.229 8.56211 212.828 12.6747L210.693 34.597C210.344 38.1814 207.331 40.9152 203.73 40.9152H199.168C195.567 40.9152 192.553 38.1814 192.204 34.597L190.069 12.6747Z" fill="#F3BD13"/>
</g>
<path d="M188.376 20.7221C188.376 19.6972 189.206 18.8665 190.231 18.8665H194.399C195.424 18.8665 196.254 19.6972 196.254 20.7221V22.968C196.254 25.1437 194.491 26.9074 192.315 26.9074V26.9074C190.139 26.9074 188.376 25.1437 188.376 22.968V20.7221Z" fill="#FFEDB2"/>
<path d="M206.654 20.7221C206.654 19.6972 207.485 18.8665 208.51 18.8665H212.677C213.702 18.8665 214.533 19.6972 214.533 20.7221V22.968C214.533 25.1437 212.769 26.9074 210.594 26.9074V26.9074C208.418 26.9074 206.654 25.1437 206.654 22.968V20.7221Z" fill="#FFEDB2"/>
<defs>
<filter id="filter0_d_91_21" x="197.065" y="6.83593" width="34.2665" height="38.0115" filterUnits="userSpaceOnUse" color-interpolation-filters="sRGB">
<feFlood flood-opacity="0" result="BackgroundImageFix"/>
<feColorMatrix in="SourceAlpha" type="matrix" values="0 0 0 0 0 0 0 0 0 0 0 0 0 0 0 0 0 0 127 0" result="hardAlpha"/>
<feOffset/>
<feGaussianBlur stdDeviation="2.33216"/>
<feComposite in2="hardAlpha" operator="out"/>
<feColorMatrix type="matrix" values="0 0 0 0 1 0 0 0 0 1 0 0 0 0 1 0 0 0 0.1 0"/>
<feBlend mode="normal" in2="BackgroundImageFix" result="effect1_dropShadow_91_21"/>
<feBlend mode="normal" in="SourceGraphic" in2="effect1_dropShadow_91_21" result="shape"/>
</filter>
<filter id="filter1_d_91_21" x="171.535" y="6.83593" width="34.2665" height="38.0115" filterUnits="userSpaceOnUse" color-interpolation-filters="sRGB">
<feFlood flood-opacity="0" result="BackgroundImageFix"/>
<feColorMatrix in="SourceAlpha" type="matrix" values="0 0 0 0 0 0 0 0 0 0 0 0 0 0 0 0 0 0 127 0" result="hardAlpha"/>
<feOffset/>
<feGaussianBlur stdDeviation="2.33216"/>
<feComposite in2="hardAlpha" operator="out"/>
<feColorMatrix type="matrix" values="0 0 0 0 1 0 0 0 0 1 0 0 0 0 1 0 0 0 0.1 0"/>
<feBlend mode="normal" in2="BackgroundImageFix" result="effect1_dropShadow_91_21"/>
<feBlend mode="normal" in="SourceGraphic" in2="effect1_dropShadow_91_21" result="shape"/>
</filter>
<filter id="filter2_d_91_21" x="185.371" y="0.335684" width="32.1552" height="45.2439" filterUnits="userSpaceOnUse" color-interpolation-filters="sRGB">
<feFlood flood-opacity="0" result="BackgroundImageFix"/>
<feColorMatrix in="SourceAlpha" type="matrix" values="0 0 0 0 0 0 0 0 0 0 0 0 0 0 0 0 0 0 127 0" result="hardAlpha"/>
<feOffset/>
<feGaussianBlur stdDeviation="2.33216"/>
<feComposite in2="hardAlpha" operator="out"/>
<feColorMatrix type="matrix" values="0 0 0 0 1 0 0 0 0 1 0 0 0 0 1 0 0 0 0.1 0"/>
<feBlend mode="normal" in2="BackgroundImageFix" result="effect1_dropShadow_91_21"/>
<feBlend mode="normal" in="SourceGraphic" in2="effect1_dropShadow_91_21" result="shape"/>
</filter>
</defs>
</svg>
